<?xml version="1.0" encoding="UTF-8"?>
<svg version="1.1" xmlns="http://www.w3.org/2000/svg" width="326" height="292">
<path d="M0 0 C107.58 0 215.16 0 326 0 C326 96.36 326 192.72 326 292 C218.42 292 110.84 292 0 292 C0 195.64 0 99.28 0 0 Z " fill="#F9F9FB" transform="translate(0,0)"/>
<path d="M0 0 C3.21868396 1.41126912 5.44835884 3.61298085 8 6 C9.10666142 6.96167193 10.21775619 7.91825405 11.33203125 8.87109375 C13.92240541 11.08917819 16.49983588 13.32081545 19.06640625 15.56640625 C22.71267826 18.75432047 26.38201934 21.91418712 30.0625 25.0625 C30.92222412 25.79847412 30.92222412 25.79847412 31.79931641 26.54931641 C32.95479957 27.53838399 34.11039819 28.52731671 35.26611328 29.51611328 C38.17894046 32.00895524 41.08934061 34.50462766 44 37 C45.16665518 38.0000134 46.33332184 39.00001341 47.5 40 C82.5 70 82.5 70 84.25073242 71.50073242 C85.41481977 72.49845195 86.57904456 73.49601114 87.7434082 74.4934082 C90.70069887 77.02698743 93.65538369 79.56350137 96.60546875 82.10546875 C101.93835322 86.69606553 107.28185945 91.25761398 112.75 95.6875 C117.17547892 99.28117084 121.43307133 103.02142985 125.640625 106.8671875 C127.86697922 108.87975274 130.14321589 110.81576778 132.4375 112.75 C136.74766304 116.55513384 138.81324622 119.03908535 139.375 124.9375 C139.43742033 130.00394986 137.0877722 133.84424204 133.6875 137.45703125 C132.800625 138.23433594 131.91375 139.01164063 131 139.8125 C130.02160156 140.67359375 129.04320312 141.5346875 128.03515625 142.421875 C124.29513682 145.59872548 120.50206562 148.70329739 116.68359375 151.78515625 C114.05291443 153.95632827 111.52057576 156.20241357 109 158.5 C104.70008209 162.41891252 100.24080453 166.09170869 95.71875 169.75 C93.07852271 171.93501569 90.5327028 174.19171391 88 176.5 C83.70008209 180.41891252 79.24080453 184.09170869 74.71875 187.75 C72.07852271 189.93501569 69.5327028 192.19171391 67 194.5 C62.70008209 198.41891252 58.24080453 202.09170869 53.71875 205.75 C51.07852271 207.93501569 48.5327028 210.19171391 46 212.5 C41.80136781 216.32293041 37.45981058 219.91679525 33.046875 223.48828125 C29.4992523 226.41279586 26.02841747 229.41705628 22.5625 232.4375 C17.85857158 236.53021049 13.14730258 240.61204722 8.375 244.625 C7.45460937 245.40101563 6.53421875 246.17703125 5.5859375 246.9765625 C1.20394637 250.40537127 -2.10379228 252.69595729 -7.875 252.48828125 C-13.45329176 251.20650465 -17.96800559 246.68163325 -21 242 C-22.35477923 234.95785306 -20.47023723 229.66183591 -16.8125 223.75 C-16.36398682 222.98534424 -15.91547363 222.22068848 -15.45336914 221.43286133 C-14.4859648 219.7895788 -13.50868817 218.15207481 -12.52246094 216.52001953 C-11.00784412 214.01298381 -9.51996488 211.49191943 -8.0390625 208.96484375 C-5.90922242 205.33595009 -3.76771005 201.71433137 -1.6171875 198.09765625 C2.42775669 191.28907862 6.43439494 184.45821716 10.4375 177.625 C10.796091 177.01305786 11.15468201 176.40111572 11.5241394 175.77062988 C21.49013686 158.78419395 21.49013686 158.78419395 31.37988281 141.75341797 C32.55246652 139.7605911 33.75953225 137.78792089 34.98730469 135.82861328 C35.96425293 134.2447583 35.96425293 134.2447583 36.9609375 132.62890625 C37.56470215 131.67185791 38.1684668 130.71480957 38.79052734 129.72875977 C40.22124688 126.50083238 40.14659901 125.2952373 39 122 C37.88527621 119.63804785 37.88527621 119.63804785 36.4375 117.28125 C35.89697998 116.36448486 35.35645996 115.44771973 34.79956055 114.50317383 C34.20570557 113.51212646 33.61185059 112.5210791 33 111.5 C31.71477572 109.32686315 30.42962252 107.15368426 29.14453125 104.98046875 C28.45932507 103.82720546 27.77393852 102.67404932 27.08837891 101.52099609 C25.00773782 98.01791685 22.94472479 94.50469569 20.88671875 90.98828125 C20.54336487 90.40161682 20.20001099 89.81495239 19.84625244 89.21051025 C19.14640906 88.01453818 18.44662095 86.81853378 17.74688721 85.62249756 C15.95955247 82.56877793 14.16920722 79.51682501 12.37890625 76.46484375 C12.02004333 75.85300232 11.66118042 75.24116089 11.29144287 74.61077881 C9.44974024 71.47091624 7.60763869 68.33128811 5.76513672 65.19189453 C0.83848715 56.79748078 -4.08378182 48.40052815 -9 40 C-9.59200195 38.989375 -10.18400391 37.97875 -10.79394531 36.9375 C-12.36576515 34.25181364 -13.93370132 31.563909 -15.5 28.875 C-15.95101074 28.10526855 -16.40202148 27.33553711 -16.86669922 26.54248047 C-20.10773519 20.96191436 -21.86075536 16.51543985 -21 10 C-17.3854987 0.07976545 -9.58612979 -1.46314613 0 0 Z " fill="#010101" transform="translate(180,28)"/>
<path d="M0 0 C3.2025185 1.44083063 5.44724172 3.61683056 8 6 C9.03211212 6.88788983 10.06898649 7.7702601 11.109375 8.6484375 C14.14300482 11.2118504 17.15087012 13.80350357 20.15332031 16.40332031 C23.09362689 18.94557375 26.04722506 21.47225198 29 24 C30.16673566 24.9999195 31.33340221 25.99991965 32.5 27 C33.0775 27.495 33.655 27.99 34.25 28.5 C39.5 33 39.5 33 41.25024414 34.50024414 C42.41605104 35.49948396 43.58190386 36.49867023 44.74780273 37.49780273 C47.67800398 40.00899461 50.60738291 42.52113393 53.53515625 45.03515625 C59.15206167 49.85663764 64.77881552 54.66509464 70.4375 59.4375 C75.77742781 63.94311501 81.06418599 68.50766699 86.33911133 73.08911133 C95.00942257 80.61809351 103.72826268 88.08944026 112.5 95.5 C117.17323252 99.45062694 121.84311105 103.40511258 126.5 107.375 C127.07556641 107.86291016 127.65113281 108.35082031 128.24414062 108.85351562 C137.62149593 116.86448778 137.62149593 116.86448778 139 121 C139.37963605 126.7894498 139.05751214 129.89986421 136 135 C134.03892872 137.06413894 132.12423599 138.93872114 130 140.8125 C129.42403076 141.33239502 128.84806152 141.85229004 128.25463867 142.38793945 C123.82414545 146.35508125 119.24973616 150.13154332 114.61328125 153.85546875 C112.00152377 155.99874956 109.49634698 158.2238033 107 160.5 C103.68010514 163.52282421 100.30235888 166.42512161 96.8125 169.25 C92.36147808 172.85470085 88.00801395 176.55370267 83.6875 180.3125 C83.05400635 180.86357422 82.4205127 181.41464844 81.76782227 181.98242188 C80.48168345 183.10162485 79.19563212 184.22092837 77.90966797 185.34033203 C70.78810787 191.52958869 63.65016307 197.69242134 56.3125 203.625 C51.62836556 207.42442969 47.19067472 211.44400208 42.75390625 215.52734375 C39.16792716 218.74709519 35.43298508 221.75905176 31.68359375 224.78515625 C29.05291443 226.95632827 26.52057576 229.20241357 24 231.5 C1.986731 251.52159228 1.986731 251.52159228 -5.125 252.375 C-11.41517575 251.76627331 -15.31005734 248.85893692 -19.5 244.25 C-21.46464077 239.99327833 -21.82341108 236.5572541 -21 232 C-19.04467986 227.43381012 -16.50872338 223.23898718 -13.9375 219 C-13.20478708 217.75961393 -12.47377534 216.51822153 -11.74438477 215.27587891 C-9.87773315 212.10802822 -7.98808619 208.95468701 -6.08886719 205.80627441 C-4.42708376 203.04961416 -2.77690832 200.2860233 -1.125 197.5234375 C0.71914867 194.44491663 2.56644771 191.36846557 4.42211914 188.296875 C9.51675162 179.85811802 14.45631694 171.33623829 19.34008789 162.77392578 C22.5727834 157.12706847 25.87514528 151.53935349 29.3125 146.015625 C30.02034599 144.86989279 30.72803046 143.72406076 31.43554688 142.578125 C32.78187336 140.40769895 34.14196144 138.24573118 35.51757812 136.09375 C36.12021484 135.11921875 36.72285156 134.1446875 37.34375 133.140625 C38.15102539 131.86493652 38.15102539 131.86493652 38.97460938 130.56347656 C40.30900296 127.22749259 39.95985266 125.43677478 39 122 C37.8059799 119.34196029 37.8059799 119.34196029 36.21875 116.74609375 C35.63303223 115.74215576 35.04731445 114.73821777 34.44384766 113.70385742 C33.80237793 112.62595947 33.1609082 111.54806152 32.5 110.4375 C31.82385205 109.28606479 31.14857786 108.1341161 30.47412109 106.98168945 C29.04999137 104.55182511 27.62047283 102.12525392 26.18652344 99.70117188 C24.05323649 96.09376634 21.93488758 92.47777283 19.8203125 88.859375 C17.0026169 84.03989036 14.17974231 79.22349611 11.3515625 74.41015625 C8.38330492 69.35822088 5.4200838 64.30337129 2.4609375 59.24609375 C1.34046774 57.33171882 0.21992716 55.41738539 -0.90066528 53.50308228 C-1.62918424 52.25849451 -2.35759941 51.01384599 -3.08590698 49.76913452 C-7.79748018 41.71890133 -12.55182192 33.69840346 -17.43359375 25.75 C-20.37738747 20.58184345 -21.95603529 16.00767855 -21 10 C-16.16302075 0.68433626 -10.15658817 -1.68164272 0 0 Z " fill="#010101" transform="translate(42,28)"/>
</svg>
